<svg xmlns="http://www.w3.org/2000/svg" viewBox="0 0 512 512" width="50" height="50" fill="#fff">
		<rect x="60.75" y="323.333" width="15.673" height="15.673"/>
		<rect x="110.185" y="210.066" width="15.673" height="15.673"/>
		<rect x="119.724" y="385.118" width="15.673" height="15.673"/>
		<path d="M280.793,412.867c-29.016,24.603-65.98,38.152-104.082,38.152c-88.796,0-161.038-72.241-161.038-161.039
			c0-40.275,14.943-78.823,42.073-108.541c26.958-29.529,63.624-47.903,103.243-51.739l-1.51-15.6
			c-43.489,4.21-83.728,24.372-113.307,56.771C16.398,203.487,0,245.787,0,289.981c0,97.439,79.272,176.711,176.711,176.711
			c41.811,0,82.375-14.87,114.219-41.87L280.793,412.867z"/>
		<rect x="219.335" y="255.373" width="15.673" height="15.673"/>
		<rect x="332.601" y="210.066" width="15.674" height="15.673"/>
		<rect x="427.332" y="210.066" width="15.673" height="15.673"/>
		<rect x="268.758" y="142.106" width="15.673" height="15.673"/>
		<rect x="278.173" y="317.158" width="15.673" height="15.673"/>
		<path d="M335.289,45.308c-97.439,0-176.711,79.273-176.711,176.712s79.272,176.711,176.711,176.711S512,319.458,512,222.02
			C512,124.58,432.728,45.308,335.289,45.308z M335.289,383.057c-88.796,0-161.038-72.241-161.038-161.038
			c0-88.798,72.241-161.039,161.038-161.039s161.038,72.241,161.038,161.039C496.327,310.815,424.085,383.057,335.289,383.057z"/>
</svg>