<svg viewBox="0 0 48 48" width="50" height="50" xmlns="http://www.w3.org/2000/svg" fill="#fff">
		<path d="M25,2h4V0h-4c-2.2,0-4,1.8-4,4v18c0,2.2,1.8,4,4,4s4-1.8,4-4c0-2.2-1.8-4-4-4     c-0.7,0-1.4,0.2-2,0.6V4C23,2.9,23.9,2,25,2z" />
		<path d="M38,9H23v2h15c1.1,0,2,0.9,2,2v18c0,1.1-0.9,2-2,2H20c-1.1,0-2-0.9-2-2V15c0-3.3-2.7-6-6-6     s-6,2.7-6,6v16c0,2.2,1.8,4,4,4h2v-2h-2c-1.1,0-2-0.9-2-2V15c0-2.2,1.8-4,4-4s4,1.8,4,4v16c0,2.2,1.8,4,4,4h1v11h-9v2h28v-2h-9     V35h7c2.2,0,4-1.8,4-4V13C42,10.8,40.2,9,38,9z M29,46h-6V35h2v6h2v-6h2V46z" />
</svg>