<svg xmlns="http://www.w3.org/2000/svg" viewBox="0 0 496 496" width="50" height="50" fill="#fff">
	<path d="M456,80h-56V0H96v80H40C17.944,80,0,97.944,0,120v288c0,22.056,17.944,40,40,40h80v32H88v16h320v-16h-32v-32h80
		c22.056,0,40-17.944,40-40V120C496,97.944,478.056,80,456,80z M400,144l16,12l-16,12V144z M313.024,253.232L416,176v166.48
		L313.024,253.232z M402.552,352H93.448l102.624-88.944L214.4,276.8c9.632,7.224,21.56,11.2,33.6,11.2
		c12.04,0,23.976-3.976,33.6-11.2l18.32-13.744L402.552,352z M112,16h272v164l-112,84c-13.752,10.312-34.248,10.312-48,0l-112-84
		V16z M182.976,253.232L80,342.48V176L182.976,253.232z M80,156l16-12v24L80,156z M360,480H136v-32h224V480z M480,408
		c0,13.232-10.768,24-24,24H40c-13.232,0-24-10.768-24-24v-8h464V408z M480,384H16V120c0-13.232,10.768-24,24-24h56v28l-32,24v220
		h368V148l-32-24V96h56c13.232,0,24,10.768,24,24V384z"/>
	<rect x="128" y="32" width="240" height="16"/>
	<rect x="128" y="64" width="240" height="16"/>
	<rect x="128" y="96" width="240" height="16"/>
	<rect x="128" y="128" width="240" height="16"/>
	<rect x="352" y="160" width="16" height="16"/>
	<rect x="272" y="160" width="64" height="16"/>
</svg>